HIERARCHY
ROOT Hips
{
	OFFSET -0.001795 -0.223333 0.028219
	CHANNELS 6 Xposition Yposition Zposition Zrotation Yrotation Xrotation
	JOINT LeftUpLeg
	{
		OFFSET 0.069520 -0.091406 -0.006815
		CHANNELS 3 Zrotation Yrotation Xrotation
		JOINT LeftLeg
		{
			OFFSET 0.034277 -0.375199 -0.004496
			CHANNELS 3 Zrotation Yrotation Xrotation
			JOINT LeftFoot
			{
				OFFSET -0.013596 -0.397961 -0.043693
				CHANNELS 3 Zrotation Yrotation Xrotation
				JOINT LeftToe
				{
					OFFSET 0.026358 -0.055791 0.119288
					CHANNELS 3 Zrotation Yrotation Xrotation
					End Site
					{
						OFFSET 0.000000 0.000000 0.000000
					}
				}
			}
		}
	}
	JOINT RightUpLeg
	{
		OFFSET -0.067670 -0.090522 -0.004320
		CHANNELS 3 Zrotation Yrotation Xrotation
		JOINT RightLeg
		{
			OFFSET -0.038290 -0.382569 -0.008850
			CHANNELS 3 Zrotation Yrotation Xrotation
			JOINT RightFoot
			{
				OFFSET 0.015774 -0.398415 -0.042312
				CHANNELS 3 Zrotation Yrotation Xrotation
				JOINT RightToe
				{
					OFFSET -0.025372 -0.048144 0.123348
					CHANNELS 3 Zrotation Yrotation Xrotation
					End Site
					{
						OFFSET 0.000000 0.000000 0.000000
					}
				}
			}
		}
	}
	JOINT Spine
	{
		OFFSET -0.002533 0.108963 -0.026696
		CHANNELS 3 Zrotation Yrotation Xrotation
		JOINT Spine1
		{
			OFFSET 0.005487 0.135180 0.001092
			CHANNELS 3 Zrotation Yrotation Xrotation
			JOINT Spine2
			{
				OFFSET 0.001457 0.052922 0.025425
				CHANNELS 3 Zrotation Yrotation Xrotation
				JOINT Neck
				{
					OFFSET -0.002778 0.213870 -0.042857
					CHANNELS 3 Zrotation Yrotation Xrotation
					JOINT Head
					{
						OFFSET 0.005152 0.064970 0.051349
						CHANNELS 3 Zrotation Yrotation Xrotation
						End Site
						{
							OFFSET 0.000000 0.000000 0.000000
						}
					}
				}
				JOINT LeftShoulder
				{
					OFFSET 0.078845 0.121749 -0.034090
					CHANNELS 3 Zrotation Yrotation Xrotation
					JOINT LeftArm
					{
						OFFSET 0.090977 0.030469 -0.008868
						CHANNELS 3 Zrotation Yrotation Xrotation
						JOINT LeftForeArm
						{
							OFFSET 0.259612 -0.012772 -0.027456
							CHANNELS 3 Zrotation Yrotation Xrotation
							JOINT LeftHand
							{
								OFFSET 0.249234 0.008986 -0.001171
								CHANNELS 3 Zrotation Yrotation Xrotation
								End Site
								{
									OFFSET 0.000000 0.000000 0.000000
								}
							}
						}
					}
				}
				JOINT RightShoulder
				{
					OFFSET -0.081759 0.118833 -0.038615
					CHANNELS 3 Zrotation Yrotation Xrotation
					JOINT RightArm
					{
						OFFSET -0.096012 0.032551 -0.009143
						CHANNELS 3 Zrotation Yrotation Xrotation
						JOINT RightForeArm
						{
							OFFSET -0.253742 -0.013329 -0.021401
							CHANNELS 3 Zrotation Yrotation Xrotation
							JOINT RightHand
							{
								OFFSET -0.255298 0.007772 -0.005559
								CHANNELS 3 Zrotation Yrotation Xrotation
								End Site
								{
									OFFSET 0.000000 0.000000 0.000000
								}
							}
						}
					}
				}
			}
		}
	}
}
MOTION
Frames: 6
Frame Time: 0.050000
-0.079237 0.686732 0.885558 -4.276181 -14.465328 -5.639783 50.563752 9.407349 -11.878902 -8.687572 1.623036 7.712929 14.289410 22.771825 41.817745 0.000000 0.000000 0.000000 -31.655821 -1.149794 -25.145832 5.529794 0.422495 28.268190 -3.615187 -4.977424 -7.563215 0.000000 0.000000 0.000000 -5.758910 1.570578 32.861364 15.392621 -6.080868 -13.363871 -13.419605 13.326606 7.145614 4.878003 -5.213427 5.222816 0.000000 0.000000 0.000000 -40.299482 -13.971911 1.073030 -22.935728 1.461782 -2.131029 -9.704046 -37.024464 4.305821 0.000000 0.000000 0.000000 45.547535 17.030296 16.781640 32.215014 7.790756 -3.165089 -2.180450 34.434790 0.562972 0.000000 0.000000 0.000000
-0.078992 0.739849 0.897224 -3.807760 -13.372634 -2.027278 46.006513 6.687986 -9.107397 -3.991211 0.559667 2.221748 4.573749 14.015425 41.370840 0.000000 0.000000 0.000000 -30.386903 -0.497090 -20.809214 2.737213 0.423827 16.498279 -1.195729 -6.541027 6.392738 0.000000 0.000000 0.000000 -5.385219 1.540003 33.579332 10.429538 -3.613521 -15.794527 -7.985372 9.044751 11.737079 1.712318 -0.810879 -3.344586 0.000000 0.000000 0.000000 -40.353863 -13.706243 4.590234 -24.870900 -4.068447 -2.268136 -5.948733 -32.419692 2.802327 0.000000 0.000000 0.000000 41.191881 18.907759 14.318798 33.246205 10.502098 -2.004809 -2.138458 29.289206 0.498430 0.000000 0.000000 0.000000
-0.078521 0.773752 0.911734 -3.267664 -13.482975 0.047124 43.584000 5.318721 -6.752581 -1.262290 0.178935 -0.562458 -1.211133 7.196144 35.497118 0.000000 0.000000 0.000000 -30.663058 -0.110850 -18.740504 2.844843 0.077371 10.034614 0.860854 -6.945063 16.659293 0.000000 0.000000 0.000000 -5.692112 1.573673 32.003350 9.027860 -2.707828 -18.932639 -5.776798 8.396259 17.010872 0.979639 0.330304 -9.542054 0.000000 0.000000 0.000000 -40.144529 -13.041673 5.507230 -24.624121 -7.458333 -2.231562 -5.878750 -30.761653 2.665652 0.000000 0.000000 0.000000 38.571875 19.313903 13.397649 33.201540 13.165116 -1.512788 -2.762368 26.896873 0.324926 0.000000 0.000000 0.000000
-0.078541 0.795866 0.926326 -3.240661 -11.576390 1.945428 41.646378 4.252304 -6.544445 0.997213 0.027827 -3.768142 -4.039971 4.612496 36.757625 0.000000 0.000000 0.000000 -29.855421 -0.038026 -16.823459 1.809743 0.074662 6.687296 1.854753 -8.041834 25.576775 0.000000 0.000000 0.000000 -4.745804 1.018171 30.214858 7.099446 -2.116489 -17.406718 -4.515583 5.958264 16.461604 -0.995892 1.785085 -12.711847 0.000000 0.000000 0.000000 -39.346137 -12.509375 6.022109 -24.779950 -9.604120 -2.012526 -5.721377 -29.549516 2.546424 0.000000 0.000000 0.000000 36.144479 20.145310 12.675830 34.163843 13.267289 -1.125732 -2.019948 26.316990 0.457816 0.000000 0.000000 0.000000
-0.079397 0.805720 0.940370 -3.410296 -11.011844 2.390921 40.745619 3.513821 -5.092287 1.349693 0.114745 -6.145513 -4.168557 4.328743 36.096461 0.000000 0.000000 0.000000 -29.402283 0.126454 -15.210435 2.509869 -0.034563 6.502518 1.421939 -9.083886 27.574895 0.000000 0.000000 0.000000 -4.089376 0.700248 28.825388 7.633405 -2.106401 -18.766433 -3.942090 6.236470 18.012154 -1.643540 2.348370 -13.764668 0.000000 0.000000 0.000000 -40.033380 -13.048135 6.454798 -25.540054 -9.336179 -2.165847 -5.645395 -29.515866 2.526682 0.000000 0.000000 0.000000 36.067770 20.549271 13.147855 32.971452 13.316935 -1.259914 -1.932607 25.470320 0.448150 0.000000 0.000000 0.000000
-0.081091 0.812854 0.954024 -3.183421 -9.975642 2.899804 39.769422 2.700230 -3.673087 1.585104 0.220341 -8.281413 -4.697439 4.100842 36.936262 0.000000 0.000000 0.000000 -29.216898 0.205985 -13.693399 2.498322 -0.009568 7.554501 0.750018 -9.652919 27.000833 0.000000 0.000000 0.000000 -3.407371 0.348553 26.496558 7.975883 -2.147104 -18.607512 -3.880789 5.884733 18.489285 -2.197846 2.761681 -14.311759 0.000000 0.000000 0.000000 -40.070599 -13.175648 6.615397 -26.269222 -8.909794 -2.313925 -5.156224 -28.458895 2.317925 0.000000 0.000000 0.000000 35.757535 20.308556 12.902293 32.648197 12.951317 -1.361823 -1.897313 25.288569 0.444992 0.000000 0.000000 0.000000
